<?xml version="1.0" encoding="UTF-8"?>
<svg xmlns="http://www.w3.org/2000/svg" xmlns:xlink="http://www.w3.org/1999/xlink" width="1920" height="1080" viewBox="0 0 1920 1080">
<defs>
<g>
<g id="glyph-0-0">
<path d="M 2.441406 -9.363281 L 2.441406 -7.292969 L 4.910156 -7.292969 L 4.910156 -6.359375 L 2.441406 -6.359375 L 2.441406 -2.402344 C 2.441406 -1.808594 2.523438 -1.425781 2.683594 -1.257812 C 2.847656 -1.085938 3.179688 -1.003906 3.679688 -1.003906 L 4.910156 -1.003906 L 4.910156 0 L 3.679688 0 C 2.753906 0 2.117188 -0.171875 1.765625 -0.515625 C 1.414062 -0.863281 1.238281 -1.492188 1.238281 -2.402344 L 1.238281 -6.359375 L 0.359375 -6.359375 L 0.359375 -7.292969 L 1.238281 -7.292969 L 1.238281 -9.363281 Z "/>
</g>
<g id="glyph-0-1">
<path d="M 7.492188 -3.945312 L 7.492188 -3.359375 L 1.984375 -3.359375 C 2.039062 -2.535156 2.285156 -1.90625 2.730469 -1.472656 C 3.175781 -1.042969 3.796875 -0.828125 4.589844 -0.828125 C 5.050781 -0.828125 5.496094 -0.882812 5.925781 -0.996094 C 6.359375 -1.109375 6.789062 -1.277344 7.214844 -1.503906 L 7.214844 -0.371094 C 6.785156 -0.1875 6.34375 -0.0507812 5.890625 0.046875 C 5.441406 0.140625 4.984375 0.1875 4.519531 0.1875 C 3.355469 0.1875 2.433594 -0.148438 1.753906 -0.828125 C 1.074219 -1.503906 0.734375 -2.417969 0.734375 -3.574219 C 0.734375 -4.769531 1.058594 -5.714844 1.703125 -6.414062 C 2.347656 -7.117188 3.214844 -7.46875 4.308594 -7.46875 C 5.289062 -7.46875 6.066406 -7.152344 6.636719 -6.519531 C 7.207031 -5.886719 7.492188 -5.03125 7.492188 -3.945312 M 6.296875 -4.296875 C 6.285156 -4.953125 6.101562 -5.476562 5.746094 -5.867188 C 5.386719 -6.257812 4.914062 -6.453125 4.324219 -6.453125 C 3.65625 -6.453125 3.121094 -6.261719 2.71875 -5.886719 C 2.316406 -5.507812 2.085938 -4.976562 2.023438 -4.289062 Z "/>
</g>
<g id="glyph-0-2">
<path d="M 5.90625 -7.078125 L 5.90625 -5.945312 C 5.566406 -6.117188 5.214844 -6.246094 4.851562 -6.335938 C 4.484375 -6.421875 4.109375 -6.464844 3.71875 -6.464844 C 3.121094 -6.464844 2.675781 -6.375 2.378906 -6.191406 C 2.082031 -6.007812 1.933594 -5.734375 1.933594 -5.371094 C 1.933594 -5.09375 2.039062 -4.875 2.253906 -4.71875 C 2.464844 -4.558594 2.894531 -4.40625 3.535156 -4.265625 L 3.945312 -4.171875 C 4.796875 -3.992188 5.398438 -3.734375 5.757812 -3.402344 C 6.117188 -3.070312 6.296875 -2.605469 6.296875 -2.011719 C 6.296875 -1.335938 6.027344 -0.796875 5.492188 -0.402344 C 4.957031 -0.0078125 4.21875 0.1875 3.28125 0.1875 C 2.890625 0.1875 2.484375 0.152344 2.0625 0.0742188 C 1.636719 0 1.191406 -0.113281 0.722656 -0.265625 L 0.722656 -1.503906 C 1.164062 -1.273438 1.601562 -1.101562 2.03125 -0.984375 C 2.460938 -0.871094 2.886719 -0.8125 3.308594 -0.8125 C 3.871094 -0.8125 4.304688 -0.910156 4.609375 -1.101562 C 4.914062 -1.296875 5.066406 -1.570312 5.066406 -1.921875 C 5.066406 -2.246094 4.957031 -2.496094 4.734375 -2.667969 C 4.515625 -2.84375 4.035156 -3.011719 3.292969 -3.171875 L 2.878906 -3.269531 C 2.136719 -3.425781 1.597656 -3.664062 1.269531 -3.988281 C 0.941406 -4.3125 0.773438 -4.753906 0.773438 -5.320312 C 0.773438 -6.003906 1.019531 -6.535156 1.503906 -6.90625 C 1.988281 -7.28125 2.679688 -7.46875 3.574219 -7.46875 C 4.015625 -7.46875 4.433594 -7.433594 4.824219 -7.371094 C 5.214844 -7.304688 5.574219 -7.207031 5.90625 -7.078125 Z "/>
</g>
</g>
</defs>
<g fill="rgb(94.901961%, 94.901961%, 94.901961%)" fill-opacity="1">
<use xlink:href="#glyph-0-0" x="30" y="32.375977"/>
<use xlink:href="#glyph-0-1" x="35" y="32.375977"/>
<use xlink:href="#glyph-0-2" x="43" y="32.375977"/>
<use xlink:href="#glyph-0-0" x="50" y="32.375977"/>
</g>
</svg>
